<?xml version="1.0" encoding="UTF-8" standalone="no"?>
<svg
   xmlns:dc="http://purl.org/dc/elements/1.1/"
   xmlns:cc="http://creativecommons.org/ns#"
   xmlns:rdf="http://www.w3.org/1999/02/22-rdf-syntax-ns#"
   xmlns:svg="http://www.w3.org/2000/svg"
   xmlns="http://www.w3.org/2000/svg"
   version="1.1"
   id="svg2"
   xml:space="preserve"
   width="55"
   height="55"
   viewBox="0 0 55 55"><metadata
     id="metadata8"><rdf:RDF><cc:Work
         rdf:about=""><dc:format>image/svg+xml</dc:format><dc:type
           rdf:resource="http://purl.org/dc/dcmitype/StillImage" /><dc:title></dc:title></cc:Work></rdf:RDF></metadata><defs
     id="defs6" /><rect
     y="1.1707551e-15"
     x="3.5527137e-15"
     height="55"
     width="55"
     id="rect4483"
     style="opacity:1;fill:#ffffff;fill-opacity:1;stroke:none;stroke-width:0.92030227;stroke-linecap:square;stroke-linejoin:miter;stroke-miterlimit:1;stroke-dasharray:none;stroke-opacity:1" /><path
     d="m 27.498,6.3167559 c -11.991999,0 -21.7173322,9.7240001 -21.7173322,21.7200001 0,9.594666 6.2226662,17.735999 14.8533322,20.609332 1.086667,0.198667 1.482667,-0.472 1.482667,-1.048 0,-0.516 -0.01867,-1.881333 -0.02933,-3.693333 -6.041333,1.312 -7.316,-2.912 -7.316,-2.912 -0.988,-2.509333 -2.412,-3.177333 -2.412,-3.177333 -1.972,-1.346667 0.149333,-1.32 0.149333,-1.32 2.18,0.153333 3.326667,2.238667 3.326667,2.238667 1.937333,3.318666 5.084,2.36 6.321333,1.804 0.197333,-1.402667 0.758667,-2.36 1.378667,-2.902667 -4.822667,-0.549333 -9.893333,-2.412 -9.893333,-10.734666 0,-2.372 0.846666,-4.309334 2.236,-5.828 -0.224,-0.549334 -0.969334,-2.757333 0.213333,-5.748 0,0 1.822666,-0.584 5.972,2.225333 1.732,-0.481333 3.590666,-0.721333 5.437333,-0.730666 1.845333,0.0093 3.702666,0.249333 5.437333,0.730666 4.146667,-2.809333 5.966667,-2.225333 5.966667,-2.225333 1.185333,2.990667 0.44,5.198666 0.217333,5.748 1.392,1.518666 2.232,3.456 2.232,5.828 0,8.343999 -5.078667,10.179999 -9.916,10.717333 0.778667,0.670666 1.473333,1.996 1.473333,4.022666 0,2.902667 -0.02667,5.245333 -0.02667,5.957333 0,0.581334 0.392,1.257334 1.493333,1.045334 8.624,-2.878667 14.841333,-11.013333 14.841333,-20.606666 0,-11.996 -9.725333,-21.7200001 -21.721333,-21.7200001"
     style="fill:#1b1817;fill-opacity:1;fill-rule:evenodd;stroke:none;stroke-width:0.13333333"
     id="path16" /></svg>