<?xml version="1.0" encoding="UTF-8"?>
<svg width="285.17" height="102.47" version="1.1" viewBox="0 0 75.45 27.113" xml:space="preserve" xmlns="http://www.w3.org/2000/svg"><defs><radialGradient id="a" cx="-36.401" cy="133.32" r="7.7876" gradientTransform="matrix(.73455 0 0 .09657 37.088 13.162)" gradientUnits="userSpaceOnUse"><stop stop-color="#959595" offset="0"/><stop stop-color="#7f7f7f" stop-opacity="0" offset="1"/></radialGradient></defs><rect x="-.0022103" width="75.454" height="27.113" fill="#fff"/><g fill="#ed2f00"><path d="m1.5699 5.4107c-0.30721 0.12079-0.45725 0.46531-0.33645 0.77254l7.2672 18.482c0.1208 0.30722 0.4653 0.45727 0.77254 0.33646l13.252-5.2109c0.30721-0.12079 0.45725-0.4653 0.33645-0.77254l-7.2672-18.482c-0.0339-0.086191-0.08573-0.15963-0.14908-0.21856l-0.09881 15.036-2.053-0.01352 0.09564-14.577zm2.2593 0.94753 6.6791-2.6263c0.31561-0.1241 0.66944 0.030366 0.79355 0.34589 0.1241 0.31562-0.02995 0.66932-0.34556 0.79341l-6.6791 2.6263c-0.3156 0.12409-0.66964-0.029812-0.79376-0.34542-0.1241-0.31561 0.030158-0.66978 0.34576-0.7939zm0.96521 2.4516 6.6791-2.6263c0.31561-0.12411 0.66978 0.030228 0.7939 0.34576 0.1241 0.3156-0.03028 0.66943-0.3459 0.79355l-6.6791 2.6263c-0.3156 0.12411-0.66931-0.03002-0.79341-0.34556-0.1241-0.31561 0.029819-0.66964 0.34543-0.79376zm0.96417 2.452 4.7929-1.8847c0.3156-0.1241 0.66978 0.030228 0.7939 0.34576 0.1241 0.3156-0.03028 0.66944-0.3459 0.79355l-4.7929 1.8847c-0.3156 0.12409-0.66931-0.03002-0.79341-0.34556-0.1241-0.31561 0.029819-0.66965 0.34543-0.79376zm7.5355 4.4948 2.053 0.01047-1.0265 2.5054z" stroke-width=".6933"/><path d="m25.443 21.6v-8.6223h6.2344v1.0175h-5.0934v2.6408h4.7699v1.0116h-4.7699v2.9349h5.2934v1.0175zm7.8754 0v-6.2462h0.94693v0.87635q0.29408-0.45876 0.78225-0.73519 0.48817-0.28231 1.1116-0.28231 0.69402 0 1.1351 0.2882 0.447 0.2882 0.62932 0.80577 0.74107-1.094 1.9291-1.094 0.92928 0 1.4292 0.51758 0.49993 0.51169 0.49993 1.5821v4.2876h-1.0528v-3.9348q0-0.63521-0.10587-0.91164-0.09999-0.28231-0.37054-0.45288-0.27055-0.17056-0.63521-0.17056-0.65873 0-1.094 0.44112-0.43523 0.43523-0.43523 1.3998v3.6289h-1.0587v-4.0583q0-0.70578-0.25879-1.0587-0.25879-0.35289-0.84694-0.35289-0.447 0-0.8293 0.23526-0.37642 0.23526-0.54698 0.68814t-0.17056 1.3057v3.2407z" stroke-width="1.01" aria-label="Em"/><path d="m25.873 12.175v-3.3499h2.4222v0.39532h-1.9789v1.026h1.8532v0.39303h-1.8532v1.1403h2.0566v0.39532zm3.0597 0v-2.4268h0.3679v0.34048q0.11425-0.17824 0.30392-0.28564 0.18966-0.10968 0.43188-0.10968 0.26964 0 0.44102 0.11197 0.17367 0.11197 0.2445 0.31306 0.28792-0.42502 0.74951-0.42502 0.36104 0 0.55527 0.20109 0.19423 0.1988 0.19423 0.61469v1.6658h-0.40903v-1.5287q0-0.24679-0.04113-0.35419-0.03885-0.10968-0.14396-0.17595t-0.24679-0.06627q-0.25593 0-0.42502 0.17138-0.1691 0.1691-0.1691 0.54385v1.4099h-0.41131v-1.5767q0-0.27421-0.10054-0.41131t-0.32905-0.1371q-0.17367 0-0.3222 0.0914-0.14624 0.0914-0.21251 0.26735t-0.06627 0.50729v1.2591zm5.4888 0v-0.35647q-0.28335 0.41132-0.77007 0.41132-0.2148 0-0.40217-0.08226-0.18509-0.08226-0.2765-0.20566-0.08912-0.12568-0.12568-0.3062-0.02514-0.12111-0.02514-0.38389v-1.5036h0.41131v1.3459q0 0.3222 0.02514 0.43416 0.03885 0.16224 0.16453 0.25593 0.12568 0.0914 0.31077 0.0914t0.34733-0.09369q0.16224-0.09597 0.22851-0.25821 0.06855-0.16452 0.06855-0.4753v-1.3002h0.41131v2.4268zm1.0077 0v-2.4268h0.37018v0.3679q0.14168-0.25821 0.2605-0.34048 0.12111-0.082263 0.26507-0.082263 0.20794 0 0.42274 0.13253l-0.14168 0.38161q-0.15082-0.08912-0.30163-0.08912-0.13482 0-0.24222 0.08226-0.1074 0.07998-0.1531 0.22394-0.06855 0.21937-0.06855 0.47987v1.2705zm3.1466-0.29935q-0.22851 0.19423-0.44102 0.27421-0.21023 0.07998-0.45245 0.07998-0.39989 0-0.61469-0.19423-0.2148-0.19652-0.2148-0.50043 0-0.17824 0.07998-0.32448 0.08226-0.14853 0.21251-0.23765 0.13253-0.08912 0.29706-0.13482 0.12111-0.03199 0.36561-0.0617 0.49815-0.05941 0.73351-0.14168 0.0023-0.08455 0.0023-0.1074 0-0.25136-0.11654-0.35419-0.15767-0.13939-0.46844-0.13939-0.2902 0-0.42959 0.10283-0.1371 0.10054-0.20337 0.35876l-0.40217-0.05484q0.05484-0.25821 0.18052-0.41588 0.12568-0.15996 0.36333-0.2445 0.23765-0.086833 0.5507-0.086833 0.31077 0 0.505 0.073123 0.19423 0.073122 0.28564 0.18509 0.0914 0.10968 0.12796 0.27878 0.02057 0.10511 0.02057 0.37932v0.54842q0 0.57355 0.02514 0.72666 0.02742 0.15082 0.10511 0.2902h-0.4296q-0.06398-0.12796-0.08226-0.29935zm-0.03428-0.9186q-0.22394 0.0914-0.67181 0.15538-0.25364 0.03656-0.35876 0.08226-0.10511 0.0457-0.16224 0.13482-0.05713 0.08683-0.05713 0.19423 0 0.16453 0.12339 0.27421 0.12568 0.10968 0.36561 0.10968 0.23765 0 0.42274-0.10283 0.18509-0.10511 0.27192-0.28564 0.06627-0.13939 0.06627-0.41131zm0.8889 0.49358 0.40674-0.06398q0.03428 0.2445 0.18966 0.37475 0.15767 0.13025 0.43874 0.13025 0.28335 0 0.42046-0.11425 0.1371-0.11654 0.1371-0.27192 0-0.13939-0.12111-0.21937-0.08455-0.05484-0.42045-0.13939-0.45245-0.11425-0.6284-0.19652-0.17367-0.08455-0.26507-0.23079-0.08912-0.14853-0.08912-0.32677 0-0.16224 0.07312-0.29934 0.07541-0.13939 0.20337-0.23079 0.09597-0.070837 0.2605-0.11882 0.16681-0.050272 0.35647-0.050272 0.28564 0 0.50043 0.082263 0.21708 0.082263 0.31991 0.22394 0.10283 0.13939 0.14168 0.37475l-0.40217 0.05484q-0.02741-0.18738-0.15995-0.29249-0.13025-0.10511-0.37018-0.10511-0.28335 0-0.40446 0.09369t-0.12111 0.21937q0 0.07998 0.05027 0.14396 0.05027 0.06627 0.15767 0.10968 0.0617 0.02285 0.36333 0.10511 0.43645 0.11654 0.60783 0.19195 0.17367 0.07312 0.27192 0.2148 0.09826 0.14168 0.09826 0.3519 0 0.20566-0.12111 0.38846-0.11882 0.18052-0.34505 0.28106-0.22622 0.09826-0.51186 0.09826-0.47301 0-0.72208-0.19652-0.24679-0.19652-0.31534-0.5827zm2.3513-0.48901q0-0.6741 0.37475-0.99858 0.31306-0.26964 0.76322-0.26964 0.50043 0 0.81806 0.32905 0.31763 0.32677 0.31763 0.90489 0 0.46844-0.14168 0.73808-0.13939 0.26735-0.40903 0.41588-0.26735 0.14853-0.58498 0.14853-0.50957 0-0.82491-0.32677-0.31306-0.32677-0.31306-0.94145zm0.42274 0q0 0.46616 0.20337 0.69923 0.20337 0.23079 0.51186 0.23079 0.3062 0 0.50957-0.23308t0.20337-0.71066q0-0.45016-0.20566-0.68095-0.20337-0.23308-0.50729-0.23308-0.30848 0-0.51186 0.23079-0.20337 0.23079-0.20337 0.69695zm2.4313 1.2134v-2.1068h-0.36333v-0.31991h0.36333v-0.25821q0-0.2445 0.04342-0.36333 0.05941-0.15996 0.20794-0.25821 0.15082-0.10054 0.42045-0.10054 0.17367 0 0.38389 0.041131l-0.0617 0.35876q-0.12796-0.02285-0.24222-0.02285-0.18738 0-0.26507 0.079978t-0.07769 0.29935v0.22394h0.47301v0.31991h-0.47301v2.1068zm2.1-0.3679 0.05941 0.36333q-0.17367 0.03656-0.31077 0.03656-0.22394 0-0.34733-0.07084t-0.17367-0.18509q-0.05027-0.11654-0.05027-0.48672v-1.3962h-0.30163v-0.31991h0.30163v-0.60098l0.40903-0.24679v0.84776h0.4136v0.31991h-0.4136v1.419q0 0.17595 0.02057 0.22622 0.02285 0.05027 0.07084 0.07998 0.05027 0.02971 0.14168 0.02971 0.06855 0 0.18052-0.016z" stroke-width=".39239" aria-label="Emurasoft"/></g><path d="m43.581 21.575v-8.6223h6.2344v1.0175h-5.0934v2.6408h4.7699v1.0116h-4.7699v2.9349h5.2934v1.0175zm11.928 0v-0.78813q-0.59404 0.92928-1.7468 0.92928-0.74696 0-1.3763-0.41171-0.62344-0.41171-0.97046-1.1469-0.34113-0.74107-0.34113-1.6998 0-0.93516 0.31172-1.6939 0.31172-0.7646 0.93516-1.1704 0.62344-0.40583 1.3939-0.40583 0.56463 0 1.0057 0.24114 0.44112 0.23526 0.71755 0.61756v-3.0937h1.0528v8.6223zm-3.3466-3.1172q0 1.1998 0.50581 1.7939 0.50581 0.59404 1.194 0.59404 0.69402 0 1.1763-0.56463 0.48817-0.57051 0.48817-1.7351 0-1.2822-0.49405-1.8821-0.49405-0.59992-1.2175-0.59992-0.70578 0-1.1822 0.57639-0.47052 0.57639-0.47052 1.8174zm5.9992-4.2876v-1.2175h1.0587v1.2175zm0 7.4049v-6.2462h1.0587v6.2462zm4.9817-0.94693 0.15292 0.93517q-0.447 0.0941-0.79989 0.0941-0.57639 0-0.89399-0.18233t-0.447-0.4764q-0.12939-0.29996-0.12939-1.2528v-3.5936h-0.77636v-0.82342h0.77636v-1.5468l1.0528-0.63521v2.1821h1.0646v0.82342h-1.0646v3.6524q0 0.45288 0.05293 0.58227 0.05882 0.12939 0.18233 0.20585 0.12939 0.07646 0.36466 0.07646 0.17645 0 0.46464-0.04117zm0.64109-2.1762q0-1.7351 0.96457-2.5702 0.80577-0.69402 1.9644-0.69402 1.2881 0 2.1056 0.84694 0.81754 0.84106 0.81754 2.3291 0 1.2057-0.36466 1.8997-0.35877 0.68814-1.0528 1.0704-0.68814 0.3823-1.5057 0.3823-1.3116 0-2.1232-0.84106-0.80577-0.84106-0.80577-2.4232zm1.0881 0q0 1.1998 0.52346 1.7998 0.52346 0.59404 1.3175 0.59404 0.78813 0 1.3116-0.59992t0.52346-1.8292q0-1.1587-0.52934-1.7527-0.52346-0.59992-1.3057-0.59992-0.79401 0-1.3175 0.59404-0.52346 0.59404-0.52346 1.7939zm5.9933 3.1231v-6.2462h0.95281v0.94693q0.36466-0.66462 0.6705-0.87635 0.31172-0.21174 0.68226-0.21174 0.53522 0 1.0881 0.34113l-0.36466 0.98222q-0.38818-0.22938-0.77636-0.22938-0.34701 0-0.62344 0.21174-0.27643 0.20585-0.39406 0.57639-0.17645 0.56463-0.17645 1.2351v3.2701z" fill="#7e7e7e" stroke-width="1.01" aria-label="Editor"/><ellipse cx="10.351" cy="26.043" rx="5.7201" ry=".75202" fill="url(#a)" stroke-width=".6933"/></svg>
